HIERARCHY
ROOT Hips
{
   OFFSET 0.00000 0.00000 0.00000
   CHANNELS 6 Xposition Yposition Zposition Zrotation Xrotation Yrotation
   JOINT Spine
   {
      OFFSET 0.000000 9.512400 0.000000
      CHANNELS 3 Zrotation Xrotation Yrotation
      JOINT Spine1
      {
         OFFSET -0.000000 20.525920 0.102128
         CHANNELS 3 Zrotation Xrotation Yrotation
         JOINT HEad
         {
            OFFSET 0.000000 6.987328 0.009072
            CHANNELS 3 Zrotation Xrotation Yrotation
            End Site
            {
               OFFSET -0.232000 10.219360 2.011160
            }
         }
         JOINT LeftShoulder1
         {
            OFFSET 7.192000 -0.289800 -0.176000
            CHANNELS 3 Zrotation Xrotation Yrotation
            JOINT LeftArm
            {
               OFFSET 8.226160 -0.002704 0.257696
               CHANNELS 3 Zrotation Xrotation Yrotation
               JOINT LeftForeArm
               {
                  OFFSET 26.213519 0.079312 -1.139472
                  CHANNELS 3 Zrotation Xrotation Yrotation
                  JOINT LeftHand
                  {
                     OFFSET 22.051441 0.068288 0.817728
                     CHANNELS 3 Zrotation Xrotation Yrotation
                     End Site
                     {
                        OFFSET 13.395442 -0.480000 1.202328
                     }
                  }
               }
            }
         }
         JOINT RightShoulder
         {
            OFFSET -7.192000 -0.289800 -0.176000
            CHANNELS 3 Zrotation Xrotation Yrotation
            JOINT RightArm
            {
               OFFSET -8.226160 -0.002704 0.257696
               CHANNELS 3 Zrotation Xrotation Yrotation
               JOINT RightForeArm
               {
                  OFFSET -26.317679 0.079312 -1.139472
                  CHANNELS 3 Zrotation Xrotation Yrotation
                  JOINT RightHand
                  {
                     OFFSET -21.993682 0.068288 0.817728
                     CHANNELS 3 Zrotation Xrotation Yrotation
                     End Site
                     {
                        OFFSET -13.304962 -0.480000 1.202328
                     }
                  }
               }
            }
         }
      }
   }
   JOINT LeftUpLeg
   {
      OFFSET 7.156640 -6.933656 0.081320
      CHANNELS 3 Zrotation Xrotation Yrotation
      JOINT LeftLeg
      {
         OFFSET 0.000000 -35.538158 1.098160
         CHANNELS 3 Zrotation Xrotation Yrotation
         JOINT LeftFoot
         {
            OFFSET -0.202840 -33.673920 -1.168472
            CHANNELS 3 Zrotation Xrotation Yrotation
            JOINT LeftToes
            {
               OFFSET -0.032000 -3.532072 6.799280
               CHANNELS 3 Zrotation Xrotation Yrotation
               End Site
               {
                  OFFSET 0.064000 -0.037960 7.823832
               }
            }
         }
      }
   }
   JOINT RightUpLeg
   {
      OFFSET -7.156640 -6.933656 0.081320
      CHANNELS 3 Zrotation Xrotation Yrotation
      JOINT RightLeg
      {
         OFFSET 0.000000 -35.538158 1.098160
         CHANNELS 3 Zrotation Xrotation Yrotation
         JOINT RightFoot
         {
            OFFSET 0.202840 -33.673920 -1.168472
            CHANNELS 3 Zrotation Xrotation Yrotation
            JOINT RightToes
            {
               OFFSET 0.032000 -3.532072 6.799280
               CHANNELS 3 Zrotation Xrotation Yrotation
               End Site
               {
                  OFFSET -0.064000 -0.109960 7.823832
               }
            }
         }
      }
   }
}
MOTION
Frames: 13
Frame Time: 0.016670
8.604265 32.410676 -121.089056 16.887578 -3.191942 15.880523 -4.229879 47.094199 145.446242 3.206871 6.095100 -89.384411 5.966103 -19.523542 -4.578539 -39.670394 -2.574320 -21.239489 -130.142001 -22.140449 -92.210614 5.570800 126.008234 -63.458932 -93.708297 -38.555714 -125.776212 35.618706 352.479289 32.442589 142.211997 0.300240 586.011215 -87.749155 62.934381 176.500585 -36.542209 -23.456774 46.254184 22.253448 -47.528568 -49.552964 -9.935647 39.435402 1.368664 -64.246631 -6.757304 59.391623 17.839566 -26.739064 -29.599704 -82.714629 -51.357374 -46.241474 -198.658484 47.332391 175.346816 9.734411 17.651934 -18.546607 -41.696047 -44.013640 -17.084822
6.648937 34.153509 -119.065111 12.749892 0.205114 20.078461 -4.732870 36.926509 143.181515 -5.881260 18.444367 -89.085700 9.787431 -12.980294 -4.501240 -35.468913 5.973475 -5.345321 -139.489320 -17.736784 -96.370520 10.223371 140.968629 -70.046465 -94.509334 -25.037500 -126.551603 27.021301 317.057463 50.053617 133.389865 17.117714 616.099346 -85.953546 58.454965 176.354118 -37.837018 -33.689071 48.067344 26.710126 -46.133246 -61.971024 -11.740496 29.567916 19.557477 -58.885731 -5.795424 61.384078 10.525049 -23.837941 -40.173202 -82.781797 -49.605355 -51.113150 -199.323484 47.373191 175.506000 13.966816 17.484603 -17.535773 -45.801278 -44.577609 -16.928658
4.679960 36.226365 -117.215403 9.531935 3.510069 16.626589 -2.715311 22.373401 133.386764 -18.821454 21.573513 -100.174403 10.626862 -7.651329 -3.930566 -31.703604 7.037807 15.105482 -147.130061 -18.824638 -108.892046 14.381587 151.446194 -72.219319 -97.704674 -40.359629 -116.812737 30.715596 268.313463 55.844801 105.528759 18.883386 637.279872 -88.749613 53.590747 170.396390 -40.543501 -36.933503 42.806018 33.298268 -40.216475 -73.783521 -10.871775 20.746401 37.468031 -53.280598 -5.643565 64.236515 28.932149 -13.412075 -23.259221 -82.306867 -49.187303 -54.543090 -198.535895 47.557180 177.463983 18.819125 13.663453 -14.203354 -52.443350 -49.609071 -18.479435
2.234414 38.681836 -115.517538 12.474004 6.003889 10.570175 -3.483852 15.947131 127.454882 -24.549740 19.827255 -105.157347 6.124838 -4.145075 -2.771802 -24.384300 7.987289 28.661612 -161.025849 -17.346037 -127.057296 17.849320 164.383187 -75.270317 -94.321934 -18.543275 -123.434236 32.242372 236.190783 52.267384 88.407858 7.781085 649.574377 -92.535294 41.992522 163.346788 -40.413604 -39.826744 35.738237 37.378234 -38.532970 -80.812722 -20.018311 13.120072 49.841192 -50.564269 -2.613111 67.217681 21.301244 -14.662516 -31.003311 -78.482610 -48.615190 -54.235841 -198.220122 50.066444 178.797058 24.084804 10.570939 -11.784361 -59.790609 -55.377511 -21.092263
-0.266244 41.154475 -113.959702 14.191272 7.370865 5.932191 -10.484214 2.829438 126.516277 -20.183547 17.234488 -110.981872 -5.633286 -0.404659 -0.676809 -16.648554 3.284370 33.526161 -170.353688 -8.369855 -135.776429 17.761087 172.828607 -78.918068 -109.645628 -32.091415 -112.193439 59.402551 224.773179 58.741259 80.213393 -6.221101 646.806729 -103.320463 40.550539 164.672173 -38.138041 -35.024329 31.047653 41.059563 -37.980998 -84.267117 -26.832647 4.184611 58.473222 -48.888158 0.047172 69.581528 30.097918 3.711905 -19.386522 -69.400794 -48.741449 -49.681570 -195.718879 54.219442 179.590535 27.778139 9.338880 -10.665392 -71.547038 -62.444772 -25.340412
-2.818471 43.735346 -112.277926 15.307729 10.235675 0.779487 -10.586272 -7.537418 125.968168 -15.616560 25.497497 -114.208071 -17.028485 -0.291171 0.985113 -8.007815 -3.237219 36.774189 -175.372456 -1.624483 -144.417438 18.751992 179.073749 -77.664121 -105.331694 -22.345903 -114.942371 79.998154 222.791099 72.147951 80.519823 -16.631258 634.389555 -109.317273 38.421211 173.116445 -39.964004 -34.543747 20.348590 44.303681 -33.544473 -86.449732 -25.656380 -4.223549 64.184947 -46.020432 0.729953 71.705054 26.259478 -2.108074 -23.007501 -61.779594 -50.296946 -46.943330 -194.484118 59.373844 179.451568 31.729985 9.572936 -11.054766 -87.165795 -71.171288 -33.671057
-5.367069 46.469807 -110.553368 17.767520 9.671055 -4.311342 -10.005687 -17.813769 124.392471 -2.811449 28.349732 -120.293811 -27.537586 -4.462712 2.122237 -1.174425 -16.033220 39.642606 -181.043794 8.338061 -154.280381 17.587961 178.020616 -76.125204 -114.331431 -29.065706 -109.887061 107.483449 223.829561 93.617728 85.227278 -14.752386 593.904783 -109.797463 31.702641 175.672056 -43.021606 -34.215676 8.366061 44.486945 -26.157656 -85.705357 -23.636488 -10.899561 66.869376 -48.679431 -0.270253 71.952266 22.907770 10.291802 -13.840816 -55.695931 -50.922831 -43.634011 -191.588609 64.477300 178.426930 35.169187 11.724788 -13.341966 -237.693561 -87.996845 -168.675251
-7.790568 49.263038 -108.909787 21.255667 12.106681 -11.851094 -6.940845 -2.362326 125.833436 3.988571 26.969740 -129.376077 -32.026610 -8.645849 1.780611 -0.629813 -24.901300 37.959613 -190.863148 11.181073 -153.852593 16.503825 177.571272 -76.971492 -111.708529 -22.597298 -111.485128 130.037062 206.645270 111.833891 57.568529 -20.665067 558.132514 -115.432492 20.546997 169.477948 -44.262942 -34.400374 -7.579063 42.345807 -22.013647 -82.320944 -23.527596 -13.994993 67.023294 -47.959850 -1.468176 73.029824 29.028181 -0.076051 -18.876237 -49.564764 -51.060773 -40.944696 -186.623130 72.549607 176.444878 38.017407 13.767913 -16.940712 -156.199309 -85.270875 -87.086865
-10.184085 52.111983 -107.297657 23.494340 10.616786 -11.495314 -4.983767 14.036908 135.997577 14.565457 0.427872 -130.478716 -33.631882 -9.618243 0.390360 -8.028836 -28.129031 38.664055 -203.829265 9.244254 -150.101385 15.903692 175.059565 -79.386531 -115.304986 -26.889048 -112.756219 173.546870 178.493306 135.743958 45.311144 -8.181990 514.683823 -133.364334 21.070138 144.736927 -50.273430 -35.784792 -27.787563 38.964347 -20.004270 -79.515935 -24.477861 -14.794393 63.188983 -52.959791 -2.060198 72.413993 17.520689 3.162393 -11.829302 -45.745428 -46.657548 -38.503822 -171.735982 81.442882 169.088354 45.282204 15.746964 -21.412052 -276.943243 -84.014079 -187.628753
-12.522119 54.842166 -105.675925 21.743122 3.954837 -5.068221 -12.553530 14.340950 146.953228 18.259990 -4.640025 -131.518188 -30.781583 -17.260484 -2.580391 -13.051727 -36.888192 43.820561 -188.693483 -0.872075 -124.664107 13.042758 173.603178 -83.871164 -112.361700 -23.089108 -118.132944 197.545723 177.528747 161.491435 51.861684 -1.138822 478.254326 -135.023824 5.839774 133.125291 -61.693636 -38.604390 -41.797500 34.972710 -17.105840 -75.941533 -28.397171 -14.723345 61.384597 -52.577970 -2.725180 72.012187 27.402266 -3.265499 -16.860829 -40.755302 -34.936476 -37.196527 -148.506576 85.101821 151.509278 50.852230 17.436218 -27.163292 -389.276878 -73.741434 -286.613452
-15.255816 57.658033 -104.000271 19.906448 -2.199522 0.397180 -20.290371 13.792122 151.059783 16.113951 -3.533849 -134.080288 -28.742382 -19.925841 -5.369670 -7.223564 -36.129081 43.450177 -191.763490 -0.652852 -123.595401 12.455635 175.580244 -85.337968 -115.324356 -22.657006 -120.607180 203.394578 173.187848 176.693128 62.818554 -9.898401 464.397621 -136.542093 -8.409576 128.390727 -72.013451 -42.028538 -53.866417 31.148555 -16.437388 -73.647027 -35.809159 -14.273282 62.685174 -52.651346 -3.089661 70.368611 14.969321 -7.602561 -18.251092 -34.337840 -25.696597 -39.396593 -106.411438 79.489441 116.204563 56.834110 17.034760 -29.643093 -432.464465 -52.434109 -338.619168
-17.982657 60.508513 -102.257336 18.356444 -1.224134 5.136671 -24.380618 20.378233 149.265506 7.689122 -5.770479 -139.973334 -27.762950 -23.238522 -7.601930 2.958175 -39.963655 45.718605 -190.561882 -2.017440 -130.985502 16.242634 174.091509 -82.165338 -114.341205 -18.384407 -122.930045 199.287804 173.978865 183.584816 73.014797 -14.764521 467.682614 -129.945592 -16.160595 138.209397 -79.689921 -46.115122 -61.014182 28.716315 -19.055820 -69.515507 -39.131503 -13.681430 59.614123 -51.977197 -4.676980 68.880224 10.854723 -14.406476 -22.949862 -23.919370 -19.332348 -42.491843 -55.706374 64.531607 78.648583 45.704368 19.340999 -25.542293 -410.287660 -40.534516 -339.985343
-20.651359 63.401817 -100.613287 15.444711 -0.532438 10.605645 -22.846389 17.947857 144.044687 11.823335 -9.686897 -145.281935 -27.009584 -27.092975 -9.635151 11.961913 -43.520821 50.152160 -188.852600 -1.930302 -135.285502 17.719918 173.656043 -81.332001 -116.078300 -16.879978 -124.659026 200.858692 176.946651 195.931899 81.142429 -13.858129 462.638219 -127.821799 -18.279835 145.005968 -86.428421 -50.504253 -64.393268 26.118920 -22.109944 -65.261044 -41.524453 -13.874344 58.538328 -51.302241 -6.997855 66.263080 4.928171 -14.012487 -29.351177 -13.934452 -11.768640 -41.292144 -35.589384 52.102572 68.432198 34.094645 22.229720 -20.856280 -397.812046 -26.758630 -348.847049
